<?xml version="1.0" encoding="UTF-8"?><svg id="CGCOMM" xmlns="http://www.w3.org/2000/svg" viewBox="0 0 1000 1000"><defs><style>.cls-1{fill:#fff;}</style></defs><path class="cls-1" d="M747.5,276.12v90.76c63.85,10.71,112.5,66.23,112.5,133.12,0,74.56-60.44,135-135,135-5.75,0-11.41-.36-16.97-1.06-18.71,28.95-43.29,53.76-72.05,72.75,27.3,11.77,57.4,18.31,89.02,18.31,124.26,0,225-100.74,225-225,0-116.67-88.8-212.59-202.5-223.88Z"/><path class="cls-1" d="M252.5,633.12c-63.85-10.71-112.5-66.23-112.5-133.12,0-74.56,60.44-135,135-135,5.75,0,11.41.36,16.97,1.06,18.71-28.95,43.29-53.76,72.05-72.75-27.3-11.77-57.4-18.31-89.02-18.31-124.26,0-225,100.74-225,225,0,116.67,88.8,212.59,202.5,223.88v-90.76Z"/><path class="cls-1" d="M725,275h-225c-124.26,0-225,100.74-225,225,0,50.65,16.74,97.39,44.99,135h-44.99v90h225c124.26,0,225-100.74,225-225,0-50.65-16.74-97.39-44.99-135h44.99v-90ZM500,635c-74.56,0-135-60.44-135-135s60.44-135,135-135,135,60.44,135,135-60.44,135-135,135Z"/></svg>